HIERARCHY
ROOT Hips
{
	OFFSET 0.00000 0.00000 0.00000
	CHANNELS 6 Xposition Yposition Zposition Zrotation Yrotation Xrotation 
	JOINT LHipJoint
	{
		OFFSET 0 0 0
		CHANNELS 3 Zrotation Yrotation Xrotation
		JOINT LeftUpLeg
		{
			OFFSET 1.28366 -1.58472 0.87544
			CHANNELS 3 Zrotation Yrotation Xrotation
			JOINT LeftLeg
			{
				OFFSET 2.18587 -6.00562 0.00000
				CHANNELS 3 Zrotation Yrotation Xrotation
				JOINT LeftFoot
				{
					OFFSET 2.39085 -6.56880 0.00000
					CHANNELS 3 Zrotation Yrotation Xrotation
					JOINT LeftToeBase
					{
						OFFSET 0.12003 -0.32979 2.03101
						CHANNELS 3 Zrotation Yrotation Xrotation
						End Site
						{
							OFFSET 0.00000 -0.00000 1.04074
						}
					}
				}
			}
		}
	}
	JOINT RHipJoint
	{
		OFFSET 0 0 0
		CHANNELS 3 Zrotation Yrotation Xrotation
		JOINT RightUpLeg
		{
			OFFSET -1.21795 -1.58472 0.87544
			CHANNELS 3 Zrotation Yrotation Xrotation
			JOINT RightLeg
			{
				OFFSET -2.22714 -6.11902 0.00000
				CHANNELS 3 Zrotation Yrotation Xrotation
				JOINT RightFoot
				{
					OFFSET -2.40306 -6.60235 0.00000
					CHANNELS 3 Zrotation Yrotation Xrotation
					JOINT RightToeBase
					{
						OFFSET -0.15519 -0.42640 1.91430
						CHANNELS 3 Zrotation Yrotation Xrotation
						End Site
						{
							OFFSET -0.00000 -0.00000 0.99082
						}
					}
				}
			}
		}
	}
	JOINT LowerBack
	{
		OFFSET 0 0 0
		CHANNELS 3 Zrotation Yrotation Xrotation
		JOINT Spine
		{
			OFFSET 0.01180 1.76430 -0.06387
			CHANNELS 3 Zrotation Yrotation Xrotation
			JOINT Spine1
			{
				OFFSET -0.00388 1.74651 0.09536
				CHANNELS 3 Zrotation Yrotation Xrotation
				JOINT Neck
				{
					OFFSET 0 0 0
					CHANNELS 3 Zrotation Yrotation Xrotation
					JOINT Neck1
					{
						OFFSET 0.04111 1.46174 0.14397
						CHANNELS 3 Zrotation Yrotation Xrotation
						JOINT Head
						{
							OFFSET 0.00502 1.44580 -0.31711
							CHANNELS 3 Zrotation Yrotation Xrotation
							End Site
							{
								OFFSET -0.00395 1.49251 -0.12327
							}
						}
					}
				}
				JOINT LeftShoulder
				{
					OFFSET 0 0 0
					CHANNELS 3 Zrotation Yrotation Xrotation
					JOINT LeftArm
					{
						OFFSET 2.70917 1.34870 -0.15417
						CHANNELS 3 Zrotation Yrotation Xrotation
						JOINT LeftForeArm
						{
							OFFSET 4.46610 -0.00000 -0.00000
							CHANNELS 3 Zrotation Yrotation Xrotation
							JOINT LeftHand
							{
								OFFSET 3.41414 -0.00000 0.00000
								CHANNELS 3 Zrotation Yrotation Xrotation
								JOINT LeftFingerBase
								{
									OFFSET 0 0 0
									CHANNELS 3 Zrotation Yrotation Xrotation
									JOINT LeftHandIndex1
									{
										OFFSET 0.32830 -0.00000 0.00000
										CHANNELS 3 Zrotation Yrotation Xrotation
										End Site
										{
											OFFSET 0.26468 -0.00000 0.00000
										}
									}
								}
								JOINT LThumb
								{
									OFFSET 0 0 0
									CHANNELS 3 Zrotation Yrotation Xrotation
									End Site
									{
										OFFSET 0.26872 -0.00000 0.26872
									}
								}
							}
						}
					}
				}
				JOINT RightShoulder
				{
					OFFSET 0 0 0
					CHANNELS 3 Zrotation Yrotation Xrotation
					JOINT RightArm
					{
						OFFSET -3.06316 1.13725 -0.10883
						CHANNELS 3 Zrotation Yrotation Xrotation
						JOINT RightForeArm
						{
							OFFSET -4.40431 -0.00000 0.00000
							CHANNELS 3 Zrotation Yrotation Xrotation
							JOINT RightHand
							{
								OFFSET -3.04688 -0.00000 0.00000
								CHANNELS 3 Zrotation Yrotation Xrotation
								JOINT RightFingerBase
								{
									OFFSET 0 0 0
									CHANNELS 3 Zrotation Yrotation Xrotation
									JOINT RightHandIndex1
									{
										OFFSET -0.50049 -0.00000 0.00000
										CHANNELS 3 Zrotation Yrotation Xrotation
										End Site
										{
											OFFSET -0.40351 -0.00000 0.00000
										}
									}
								}
								JOINT RThumb
								{
									OFFSET 0 0 0
									CHANNELS 3 Zrotation Yrotation Xrotation
									End Site
									{
										OFFSET -0.40967 -0.00000 0.40967
									}
								}
							}
						}
					}
				}
			}
		}
	}
}
MOTION
Frames: 11
Frame Time: .0083333
-8.0784 13.1740 5.6268 -173.9820 13.1202 -161.7500 0.0000 0.0000 0.0000 -12.5341 5.2271 -65.6404 16.9955 19.7822 81.1846 2.2515 -2.0107 -27.8585 0.0700 1.7064 4.6949 0.0000 0.0000 0.0000 21.8308 -6.6300 -72.7329 -19.6427 -19.9969 88.9553 0.5418 16.6257 -5.1076 -0.3073 -3.5642 9.8536 -4.9365 3.4967 18.1764 -5.3519 3.1351 -3.4014 -4.2353 1.6710 -14.0966 14.4723 18.0851 -9.3309 -21.3853 23.5142 -7.6908 -6.5258 11.6560 3.5252 -0.0000 0.0000 0.0000 3.4061 -30.3638 -71.4018 11.9004 -19.6550 -2.0687 -0.0000 0.0000 -47.8649 -12.4897 15.4110 -3.3687 -7.1250 0.0000 -0.0000 -35.2567 42.4294 2.5980 -0.0000 0.0000 0.0000 40.7866 0.8584 -42.8166 -20.3879 31.1069 -5.7304 0.0000 -0.0000 -75.8539 -3.3504 -7.0988 0.4145 7.1250 -0.0000 -0.0000 19.5700 -36.4350 4.3286
-8.0249 13.1666 5.6633 -174.1000 13.4734 -161.7990 0.0000 0.0000 0.0000 -12.5635 5.7033 -65.7459 16.9453 19.7748 81.0362 2.2409 -1.8863 -27.8220 0.0548 1.5101 4.1535 0.0000 0.0000 0.0000 21.1769 -6.8081 -73.8678 -20.0407 -20.0000 90.1191 0.8417 17.4953 -1.1199 -0.3592 -3.8504 10.6561 -5.0534 3.6189 18.3792 -5.5049 3.2720 -3.1377 -4.3808 1.7443 -13.9014 14.2061 18.0785 -9.5687 -21.1541 23.5227 -7.1165 -6.3849 11.6135 3.6697 -0.0000 0.0000 0.0000 3.0723 -30.9213 -72.1582 11.7207 -19.3844 -2.0086 -0.0000 0.0000 -46.9328 -12.4163 15.6913 -3.4076 -7.1250 0.0000 -0.0000 -35.3383 42.6742 2.3555 -0.0000 0.0000 0.0000 41.4886 1.1157 -41.8838 -20.3817 31.0995 -5.7272 0.0000 -0.0000 -76.6983 -4.3861 -7.2282 0.5529 7.1250 -0.0000 -0.0000 18.7667 -36.6238 4.0429
-7.9771 13.1652 5.6996 -174.0570 13.7938 -161.8700 0.0000 0.0000 0.0000 -12.4658 6.2247 -65.8021 16.8864 19.7660 80.8622 2.2439 -1.8962 -27.8392 0.0674 1.6754 4.6095 0.0000 0.0000 0.0000 20.6093 -6.9763 -74.8487 -20.3540 -19.9970 91.0352 1.0494 18.1126 3.0756 -0.5531 -4.7641 13.2371 -4.9743 3.6036 18.7208 -5.6779 3.2446 -3.0219 -4.6371 1.7212 -13.9542 14.5791 18.1613 -9.2725 -21.1554 23.6302 -6.6273 -6.4131 11.6237 3.8317 0.0000 -0.0000 0.0000 2.5456 -30.9558 -71.7157 11.6768 -19.3182 -1.9941 -0.0000 0.0000 -46.6265 -12.6433 15.6217 -3.4568 -7.1250 0.0000 -0.0000 -35.4805 42.5891 2.4556 0.0000 -0.0000 0.0000 42.3171 1.8962 -41.4377 -20.1868 30.8667 -5.6269 0.0000 -0.0000 -76.5303 -4.6036 -7.3076 0.5868 7.1250 -0.0000 -0.0000 18.6101 -36.7131 3.9633
-7.9306 13.1639 5.7379 -173.8260 14.0791 -161.9300 0.0000 0.0000 0.0000 -12.1532 6.7973 -65.8552 16.8471 19.7600 80.7460 2.2503 -1.8782 -27.8845 0.0714 1.7236 4.7424 0.0000 0.0000 0.0000 20.2286 -7.0970 -75.7014 -20.6056 -19.9912 91.7708 1.1535 18.5997 6.9917 -0.8533 -5.8911 16.4687 -4.6349 3.5912 19.1784 -5.8183 3.2711 -2.8982 -5.0294 1.6991 -14.0498 14.9593 18.2263 -9.0803 -21.1818 23.7253 -6.0466 -6.4390 11.6208 4.0404 -0.0000 -0.0000 0.0000 2.0187 -31.1283 -71.5686 11.6076 -19.2136 -1.9713 -0.0000 0.0000 -46.0437 -12.9030 15.6798 -3.5428 -7.1250 0.0000 -0.0000 -35.7112 42.6076 2.4579 -0.0000 -0.0000 0.0000 43.1582 2.7345 -41.3139 -20.0094 30.6537 -5.5361 0.0000 -0.0000 -76.2441 -4.6285 -7.3704 0.5950 7.1250 -0.0000 -0.0000 18.6056 -36.7745 3.9329
-7.8842 13.1620 5.7763 -173.5050 14.3679 -161.9360 0.0000 0.0000 0.0000 -11.7044 7.3703 -65.9368 16.8191 19.7557 80.6631 2.2435 -1.7940 -27.8624 0.0613 1.5980 4.3958 0.0000 0.0000 0.0000 19.9604 -7.1464 -76.4699 -20.7956 -19.9848 92.3269 1.1702 18.9236 10.1041 -0.9924 -6.3403 17.7751 -4.1913 3.6745 19.6746 -5.8700 3.4524 -2.7542 -5.4293 1.7394 -14.1335 14.8488 18.1809 -9.1758 -21.0429 23.7104 -5.3589 -6.3552 11.5634 4.2268 0.0000 -0.0000 0.0000 1.5329 -31.5400 -71.5705 11.4884 -19.0330 -1.9322 -0.0000 0.0000 -45.6072 -13.1301 15.9882 -3.6762 -7.1250 0.0000 -0.0000 -36.0429 42.8391 2.2456 0.0000 -0.0000 0.0000 43.7912 3.5040 -41.6624 -19.8012 30.4020 -5.4304 0.0000 -0.0000 -75.6906 -4.4575 -7.7355 0.6012 7.1250 -0.0000 -0.0000 18.8359 -37.1098 3.8235
-7.8388 13.1625 5.8158 -173.0860 14.6004 -161.8240 0.0000 0.0000 0.0000 -11.1095 7.8747 -66.1307 16.8004 19.7528 80.6078 2.2503 -2.1638 -27.8138 0.1006 2.0456 5.6316 0.0000 0.0000 0.0000 19.7799 -7.0661 -77.1960 -20.9489 -19.9784 92.7753 1.1396 19.0072 11.9367 -1.1042 -6.6768 18.7613 -3.6389 3.6597 20.0310 -5.9090 3.5415 -2.6333 -5.8373 1.7303 -14.1570 14.7480 18.2021 -9.1928 -20.8824 23.7809 -4.7655 -6.2617 11.5553 4.3840 -0.0000 -0.0000 0.0000 0.9177 -31.7392 -71.4326 11.4541 -18.9810 -1.9210 -0.0000 0.0000 -45.4107 -13.1634 15.9102 -3.6683 -7.1250 0.0000 -0.0000 -36.0291 42.7697 2.3172 -0.0000 -0.0000 0.0000 44.4262 4.5127 -42.0073 -19.5720 30.1233 -5.3149 0.0000 -0.0000 -75.1062 -4.4983 -7.9067 0.6200 7.1250 -0.0000 -0.0000 18.8463 -37.2750 3.7456
-7.7831 13.1645 5.8551 -172.3720 14.7171 -161.7200 0.0000 0.0000 0.0000 -10.0576 8.4116 -66.2873 16.7998 19.7527 80.6060 2.2029 -2.3885 -27.4560 0.0982 2.0210 5.5636 0.0000 0.0000 0.0000 19.9295 -6.9350 -77.6173 -21.0751 -19.9723 93.1447 1.0797 18.5576 11.7847 -0.8784 -5.9749 16.7115 -2.8221 3.6020 20.4117 -5.9336 3.6406 -2.5027 -6.3849 1.7040 -14.1635 14.7194 18.3707 -9.4682 -20.6840 24.0569 -3.8259 -6.0929 11.6108 4.7210 0.0000 -0.0000 0.0000 0.5357 -31.9278 -71.3290 11.4147 -18.9211 -1.9082 -0.0000 0.0000 -45.2821 -13.0410 15.9483 -3.6415 -7.1250 0.0000 -0.0000 -35.9537 42.8167 2.2616 0.0000 -0.0000 0.0000 45.3185 5.4436 -42.1214 -19.4119 29.9272 -5.2347 0.0000 -0.0000 -74.6336 -4.3574 -7.7478 0.5886 7.1250 -0.0000 -0.0000 18.9204 -37.1147 3.8399
-7.7325 13.1676 5.8982 -171.9860 14.8306 -161.5430 0.0000 0.0000 0.0000 -9.3924 8.7615 -66.5880 16.8001 19.7527 80.6071 2.1223 -2.0704 -27.0082 0.0408 1.3036 3.5847 0.0000 0.0000 0.0000 19.6367 -6.7971 -78.1255 -21.2268 -19.9639 93.5891 0.9642 17.4318 10.3553 -0.6096 -4.9974 13.9013 -2.4385 3.5983 20.6417 -5.8914 3.7250 -2.3711 -6.5902 1.7130 -14.1126 14.7293 18.2823 -9.4278 -20.5576 23.9818 -3.2731 -6.0571 11.5401 4.8535 -0.0000 -0.0000 0.0000 -0.0701 -32.3393 -71.8206 11.3141 -18.7680 -1.8757 -0.0000 0.0000 -44.5631 -12.9370 15.7072 -3.5585 -7.1250 0.0000 -0.0000 -35.7512 42.6263 2.4421 -0.0000 -0.0000 0.0000 45.8525 6.3448 -42.2717 -19.2103 29.6792 -5.1346 0.0000 -0.0000 -74.0741 -4.6846 -7.6176 0.6224 7.1250 -0.0000 -0.0000 18.6215 -37.0129 3.8224
-7.6801 13.1706 5.9428 -171.7250 14.8425 -161.3750 0.0000 0.0000 0.0000 -8.8359 8.9430 -66.8992 16.7878 19.7508 80.5706 2.0723 -2.1592 -26.6562 0.0411 1.3085 3.5981 0.0000 0.0000 0.0000 19.2869 -6.7807 -78.6080 -21.3788 -19.9544 94.0343 0.8228 15.9263 7.9711 -0.3370 -3.7308 10.3206 -1.9551 3.5429 20.9291 -5.9237 3.7651 -2.2078 -6.9294 1.6945 -14.0491 14.3164 18.1821 -9.6872 -20.2248 23.8882 -2.7367 -5.8944 11.4583 4.9442 0.0000 -0.0000 0.0000 -0.5915 -32.6751 -71.8398 11.2696 -18.7003 -1.8614 -0.0000 0.0000 -44.4370 -12.6156 15.6064 -3.4457 -7.1250 0.0000 -0.0000 -35.4513 42.5795 2.4629 0.0000 -0.0000 0.0000 46.3632 7.1848 -42.4293 -18.9949 29.4123 -5.0283 0.0000 -0.0000 -73.5255 -4.4579 -7.7000 0.5985 7.1250 -0.0000 -0.0000 18.8266 -37.0761 3.8378
-7.6104 13.1569 5.9881 -171.5100 15.0368 -161.3210 0.0000 0.0000 0.0000 -8.2871 9.3799 -67.1779 16.7900 19.7511 80.5771 2.0409 -2.7228 -26.3163 0.0956 1.9940 5.4890 0.0000 0.0000 0.0000 18.7590 -6.4922 -78.9115 -21.5569 -19.9418 94.5563 0.6058 13.6349 5.2917 -0.1591 -2.5700 7.0839 -1.8667 3.5668 21.2984 -6.0092 3.8101 -2.0738 -7.1212 1.7074 -14.0906 14.4205 18.2030 -9.8148 -20.0615 23.9387 -2.1101 -5.8196 11.4349 5.1508 0.0000 -0.0000 0.0000 -0.9899 -33.0562 -72.1575 11.1854 -18.5719 -1.8345 -0.0000 0.0000 -43.8596 -12.2842 15.2733 -3.2829 -7.1250 0.0000 -0.0000 -35.0293 42.3369 2.6694 0.0000 -0.0000 0.0000 47.0635 7.9896 -42.3060 -18.7741 29.1370 -4.9204 0.0000 -0.0000 -72.9509 -4.4746 -7.8640 0.6134 7.1250 -0.0000 -0.0000 18.8546 -37.2328 3.7679
-7.5402 13.1722 6.0356 -171.4700 15.1279 -161.2750 0.0000 0.0000 0.0000 -7.9755 9.6673 -67.3243 16.7049 19.7377 80.3251 1.9949 -3.1277 -25.9208 0.1608 2.5838 7.1220 0.0000 0.0000 0.0000 18.1157 -6.3159 -79.0459 -21.6350 -19.9358 94.7854 0.3828 10.9208 3.1275 -0.1253 -2.2815 6.2843 -1.8943 3.5923 21.6061 -6.0863 3.8371 -1.9042 -7.2210 1.7266 -14.0630 14.3889 18.1276 -9.8511 -20.0009 23.8820 -1.6692 -5.7923 11.3779 5.2705 -0.0000 -0.0000 0.0000 -1.3458 -33.5779 -72.8948 11.0534 -18.3700 -1.7927 -0.0000 0.0000 -43.2290 -11.9075 15.3373 -3.1924 -7.1250 0.0000 -0.0000 -34.7671 42.4348 2.5447 -0.0000 -0.0000 0.0000 47.6217 8.7146 -42.2472 -18.5310 28.8318 -4.8026 0.0000 -0.0000 -72.3298 -4.2894 -7.9953 0.5977 7.1250 -0.0000 -0.0000 19.0392 -37.3447 3.7533
